<svg version="1.2" baseProfile="tiny" id="EdgeSVG_ptTpM" x="0px" y="0px" width="151.039px" height="151.035px" viewBox="0 0 151.039 151.035" xmlns:xlink="http://www.w3.org/1999/xlink" xmlns="http://www.w3.org/2000/svg">
  <linearGradient id="SVGID_1_" gradientUnits="userSpaceOnUse" x1="75.5195" y1="3.4014" x2="75.5195" y2="147.6348">
    <stop offset="0" style="stop-color:#FFFFFF;stop-opacity:0.1"/>
    <stop offset="0.2567" style="stop-color:#C1C1C1;stop-opacity:0.1"/>
    <stop offset="0.847" style="stop-color:#292929;stop-opacity:0.1"/>
    <stop offset="1" style="stop-color:#000000;stop-opacity:0.1"/>
  </linearGradient>
  <path fill="url(#SVGID_1_)" d="M147.64,47.195l-0.01,56.676c0,0.794-0.529,2.059-1.089,2.617l-40.088,40.068&#xD;&#xA;&#x9;&#x9;c-0.561,0.559-1.824,1.078-2.618,1.078l-56.668-0.01c-0.795,0-2.06-0.529-2.618-1.078l-40.06-40.088&#xD;&#xA;&#x9;&#x9;c-0.56-0.559-1.09-1.834-1.09-2.617L3.41,47.176c0-0.795,0.529-2.069,1.089-2.617L44.577,4.49c0.56-0.56,1.835-1.089,2.618-1.089&#xD;&#xA;&#x9;&#x9;l56.679,0.021c0.784,0,2.059,0.519,2.616,1.078l40.061,40.077C147.109,45.137,147.64,46.41,147.64,47.195z"/>
  <linearGradient id="SVGID_2_" gradientUnits="userSpaceOnUse" x1="75.5332" y1="4.9746" x2="75.5332" y2="146.0625">
    <stop offset="0.3067" style="stop-color:#FFFFFF;stop-opacity:0.2"/>
    <stop offset="0.3906" style="stop-color:#C3C3C3;stop-opacity:0.2"/>
    <stop offset="0.5146" style="stop-color:#717171;stop-opacity:0.2"/>
    <stop offset="0.6165" style="stop-color:#343434;stop-opacity:0.2"/>
    <stop offset="0.6909" style="stop-color:#0E0E0E;stop-opacity:0.2"/>
    <stop offset="0.7301" style="stop-color:#000000;stop-opacity:0.2"/>
  </linearGradient>
  <path fill="url(#SVGID_2_)" d="M143.915,75.523c0-2.414,0.874-4.516,2.166-5.628c-0.192-2.435-0.507-4.834-0.938-7.194&#xD;&#xA;&#x9;&#x9;c-1.539-0.738-2.93-2.545-3.557-4.877c-0.628-2.342-0.31-4.589,0.658-5.995c-0.815-2.3-1.739-4.546-2.78-6.727&#xD;&#xA;&#x9;&#x9;c-1.681-0.31-3.496-1.674-4.71-3.771c-1.208-2.094-1.485-4.339-0.92-5.949c-1.386-2.009-2.876-3.938-4.456-5.789&#xD;&#xA;&#x9;&#x9;c-1.696,0.123-3.787-0.725-5.49-2.424c-1.706-1.705-2.553-3.799-2.432-5.498c-1.85-1.58-3.777-3.069-5.786-4.453&#xD;&#xA;&#x9;&#x9;c-1.61,0.563-3.854,0.287-5.946-0.918c-2.103-1.213-3.467-3.03-3.773-4.712c-2.182-1.04-4.429-1.966-6.727-2.782&#xD;&#xA;&#x9;&#x9;c-1.407,0.969-3.654,1.286-5.992,0.662c-2.34-0.625-4.146-2.019-4.883-3.559c-2.356-0.432-4.753-0.743-7.186-0.936&#xD;&#xA;&#x9;&#x9;c-1.112,1.294-3.215,2.168-5.631,2.168c-2.417,0-4.52-0.874-5.631-2.168c-2.434,0.192-4.83,0.504-7.187,0.936&#xD;&#xA;&#x9;&#x9;c-0.734,1.542-2.543,2.936-4.882,3.563c-2.344,0.628-4.592,0.309-6-0.663c-2.297,0.815-4.54,1.739-6.72,2.779&#xD;&#xA;&#x9;&#x9;c-0.307,1.682-1.671,3.501-3.773,4.715c-2.093,1.209-4.339,1.483-5.95,0.917c-2.007,1.385-3.935,2.874-5.783,4.453&#xD;&#xA;&#x9;&#x9;c0.124,1.697-0.726,3.791-2.43,5.496c-1.704,1.704-3.797,2.552-5.496,2.428c-1.58,1.85-3.068,3.777-4.452,5.785&#xD;&#xA;&#x9;&#x9;c0.565,1.61,0.29,3.855-0.921,5.949c-1.211,2.1-3.027,3.463-4.709,3.772c-1.039,2.181-1.966,4.427-2.783,6.725&#xD;&#xA;&#x9;&#x9;c0.972,1.406,1.291,3.652,0.66,5.995c-0.625,2.334-2.015,4.142-3.555,4.879c-0.431,2.358-0.746,4.758-0.938,7.191&#xD;&#xA;&#x9;&#x9;c1.292,1.113,2.166,3.213,2.165,5.629c0,2.409-0.873,4.509-2.165,5.622c0.193,2.436,0.507,4.834,0.938,7.194&#xD;&#xA;&#x9;&#x9;c1.54,0.738,2.93,2.544,3.555,4.882c0.628,2.337,0.312,4.58-0.656,5.988c0.815,2.3,1.742,4.547,2.783,6.729&#xD;&#xA;&#x9;&#x9;c1.678,0.309,3.494,1.672,4.705,3.774c1.208,2.089,1.484,4.33,0.922,5.94c1.386,2.008,2.876,3.938,4.457,5.791&#xD;&#xA;&#x9;&#x9;c1.698-0.123,3.785,0.725,5.49,2.431c1.701,1.7,2.55,3.787,2.427,5.486c1.852,1.58,3.782,3.07,5.792,4.458&#xD;&#xA;&#x9;&#x9;c1.609-0.563,3.852-0.288,5.944,0.924c2.097,1.209,3.46,3.021,3.769,4.701c2.185,1.041,4.432,1.968,6.731,2.784&#xD;&#xA;&#x9;&#x9;c1.406-0.968,3.651-1.285,5.993-0.656c2.332,0.625,4.138,2.014,4.876,3.552c2.361,0.433,4.764,0.747,7.201,0.938&#xD;&#xA;&#x9;&#x9;c1.114-1.287,3.211-2.157,5.622-2.157c2.408,0,4.507,0.87,5.621,2.157c2.438-0.19,4.84-0.505,7.2-0.938&#xD;&#xA;&#x9;&#x9;c0.739-1.536,2.544-2.925,4.877-3.549c2.337-0.626,4.581-0.311,5.988,0.654c2.3-0.816,4.551-1.742,6.733-2.784&#xD;&#xA;&#x9;&#x9;c0.309-1.679,1.674-3.491,3.771-4.702c2.091-1.207,4.334-1.484,5.941-0.924c2.01-1.385,3.941-2.876,5.791-4.458&#xD;&#xA;&#x9;&#x9;c-0.119-1.696,0.73-3.785,2.431-5.486c1.703-1.703,3.791-2.552,5.489-2.43c1.581-1.853,3.071-3.782,4.458-5.792&#xD;&#xA;&#x9;&#x9;c-0.563-1.608-0.285-3.852,0.92-5.94c1.213-2.101,3.024-3.466,4.707-3.774c1.042-2.183,1.968-4.429,2.783-6.727&#xD;&#xA;&#x9;&#x9;c-0.968-1.409-1.286-3.654-0.658-5.991c0.624-2.337,2.017-4.144,3.557-4.882c0.431-2.359,0.744-4.759,0.938-7.194&#xD;&#xA;&#x9;&#x9;C144.789,80.032,143.918,77.933,143.915,75.523z M75.533,139.611c-35.401,0-64.099-28.694-64.099-64.093&#xD;&#xA;&#x9;&#x9;c0-35.399,28.697-64.084,64.099-64.084c35.399,0,64.096,28.685,64.096,64.084C139.629,110.917,110.933,139.611,75.533,139.611z"/>
  <linearGradient id="SVGID_3_" gradientUnits="userSpaceOnUse" x1="9.3105" y1="124.7979" x2="141.7305" y2="124.7979">
    <stop offset="0" style="stop-color:#000000;stop-opacity:0.45"/>
    <stop offset="1" style="stop-color:#000000;stop-opacity:0.45"/>
  </linearGradient>
  <path fill="url(#SVGID_3_)" d="M141.73,100.548c-0.181,2.261-0.48,4.511-0.88,6.7c-1.45,0.69-2.75,2.391-3.341,4.58&#xD;&#xA;&#x9;&#x9;c-0.54,2.01-0.319,3.96,0.41,5.28l-30.47,30.45c-0.82,0.819-2.45,1.489-3.62,1.489l-56.66-0.01c-1.17,0-2.8-0.68-3.62-1.5&#xD;&#xA;&#x9;&#x9;l-30.42-30.439c0.73-1.32,0.94-3.261,0.4-5.271c-0.59-2.189-1.89-3.89-3.34-4.58c-0.4-2.2-0.69-4.439-0.88-6.7&#xD;&#xA;&#x9;&#x9;c0.68,1.841,1.439,3.63,2.279,5.391c1.681,0.31,3.49,1.67,4.71,3.779c1.21,2.08,1.48,4.33,0.91,5.94c1.391,2,2.891,3.93,4.46,5.79&#xD;&#xA;&#x9;&#x9;c1.71-0.13,3.789,0.72,5.5,2.42c1.7,1.71,2.55,3.79,2.42,5.5c1.86,1.57,3.79,3.07,5.801,4.45c1.6-0.561,3.85-0.29,5.939,0.92&#xD;&#xA;&#x9;&#x9;c2.1,1.21,3.46,3.03,3.771,4.71c2.189,1.03,4.43,1.96,6.729,2.79c1.41-0.98,3.66-1.3,6-0.66c2.32,0.62,4.12,2.01,4.87,3.55&#xD;&#xA;&#x9;&#x9;c2.36,0.42,4.759,0.74,7.2,0.931c1.12-1.28,3.209-2.15,5.62-2.15c2.409,0,4.51,0.87,5.62,2.15c2.439-0.19,4.84-0.511,7.199-0.931&#xD;&#xA;&#x9;&#x9;c0.75-1.54,2.551-2.93,4.87-3.55c2.351-0.63,4.59-0.31,5.99,0.66c2.31-0.83,4.56-1.76,6.74-2.79c0.31-1.68,1.68-3.5,3.77-4.71&#xD;&#xA;&#x9;&#x9;c2.09-1.2,4.34-1.48,5.94-0.92c2.01-1.38,3.939-2.88,5.8-4.45c-0.13-1.7,0.729-3.79,2.42-5.5c1.71-1.69,3.79-2.54,5.5-2.42&#xD;&#xA;&#x9;&#x9;c1.58-1.85,3.07-3.79,4.46-5.79c-0.57-1.61-0.3-3.86,0.92-5.94c1.209-2.109,3.021-3.47,4.7-3.779&#xD;&#xA;&#x9;&#x9;C140.29,104.178,141.05,102.389,141.73,100.548z"/>
  <linearGradient id="SVGID_4_" gradientUnits="userSpaceOnUse" x1="75.5205" y1="1.9902" x2="75.5205" y2="149.0469">
    <stop offset="0" style="stop-color:#FFFFFF;stop-opacity:0.3"/>
    <stop offset="0.1557" style="stop-color:#DDDDDD;stop-opacity:0.3"/>
    <stop offset="0.501" style="stop-color:#868686;stop-opacity:0.3"/>
    <stop offset="1" style="stop-color:#000000;stop-opacity:0.3"/>
  </linearGradient>
  <path fill="url(#SVGID_4_)" d="M147.552,43.588L107.491,3.5c-0.823-0.824-2.451-1.49-3.617-1.49L47.195,1.99&#xD;&#xA;&#x9;&#x9;c-1.166,0-2.793,0.676-3.617,1.499L3.499,43.558c-0.824,0.823-1.5,2.451-1.5,3.618l-0.01,56.666c0,1.167,0.676,2.793,1.499,3.617&#xD;&#xA;&#x9;&#x9;l40.061,40.078c0.823,0.823,2.451,1.5,3.618,1.5l56.668,0.01c1.166,0,2.794-0.667,3.617-1.49l40.09-40.068&#xD;&#xA;&#x9;&#x9;c0.823-0.823,1.499-2.451,1.499-3.617l0.011-56.676C149.052,46.038,148.375,44.41,147.552,43.588z M147.63,103.871&#xD;&#xA;&#x9;&#x9;c0,0.794-0.529,2.059-1.089,2.617l-40.088,40.068c-0.561,0.559-1.824,1.078-2.618,1.078l-56.668-0.01&#xD;&#xA;&#x9;&#x9;c-0.795,0-2.06-0.529-2.618-1.078l-40.06-40.088c-0.56-0.559-1.09-1.834-1.09-2.617L3.41,47.176c0-0.795,0.529-2.069,1.089-2.617&#xD;&#xA;&#x9;&#x9;L44.577,4.49c0.56-0.56,1.835-1.089,2.618-1.089l56.679,0.021c0.784,0,2.059,0.519,2.616,1.078l40.061,40.077&#xD;&#xA;&#x9;&#x9;c0.559,0.56,1.089,1.833,1.089,2.618L147.63,103.871z"/>
  <linearGradient id="SVGID_5_" gradientUnits="userSpaceOnUse" x1="14.5303" y1="120.6582" x2="136.5205" y2="120.6582">
    <stop offset="0" style="stop-color:#000000;stop-opacity:0.45"/>
    <stop offset="1" style="stop-color:#000000;stop-opacity:0.45"/>
  </linearGradient>
  <path fill="url(#SVGID_5_)" d="M136.521,95.298c-0.46,8.5-2.32,16.58-5.341,23.95c-0.579,0.75-1.18,1.48-1.8,2.2&#xD;&#xA;&#x9;&#x9;c-1.7-0.12-3.79,0.72-5.489,2.43c-1.7,1.7-2.551,3.79-2.432,5.48c-1.85,1.59-3.779,3.08-5.789,4.46&#xD;&#xA;&#x9;&#x9;c-1.609-0.561-3.85-0.28-5.95,0.93c-2.09,1.21-3.46,3.021-3.77,4.7c-2.18,1.04-4.43,1.97-6.73,2.78&#xD;&#xA;&#x9;&#x9;c-1.409-0.96-3.649-1.28-5.989-0.65c-2.33,0.62-4.141,2.01-4.88,3.55c-2.36,0.431-4.761,0.74-7.2,0.931&#xD;&#xA;&#x9;&#x9;c-1.11-1.28-3.21-2.15-5.62-2.15s-4.5,0.87-5.62,2.15c-2.44-0.19-4.84-0.5-7.2-0.931c-0.74-1.54-2.54-2.93-4.88-3.55&#xD;&#xA;&#x9;&#x9;c-2.34-0.63-4.58-0.32-5.99,0.65c-2.3-0.82-4.55-1.74-6.73-2.78c-0.31-1.68-1.669-3.5-3.77-4.7c-2.09-1.22-4.33-1.49-5.939-0.93&#xD;&#xA;&#x9;&#x9;c-2.01-1.391-3.941-2.88-5.8-4.46c0.13-1.7-0.721-3.78-2.421-5.48c-1.71-1.71-3.789-2.56-5.489-2.43&#xD;&#xA;&#x9;&#x9;c-0.641-0.75-1.261-1.51-1.86-2.28c-3-7.359-4.85-15.43-5.3-23.91c8.32,25.74,32.49,44.351,61,44.351&#xD;&#xA;&#x9;&#x9;C104.03,139.608,128.18,121.019,136.521,95.298z"/>
</svg>