<svg version="1.2" baseProfile="tiny" id="EdgeSVG_ptTpM" x="0px" y="0px" width="151.039px" height="151.035px" viewBox="0 0 151.039 151.035" xmlns:xlink="http://www.w3.org/1999/xlink" xmlns="http://www.w3.org/2000/svg">
  <radialGradient id="SVGID_12_" cx="75.5137" cy="75.5166" r="61.4048" gradientUnits="userSpaceOnUse">
    <stop offset="0.8589" style="stop-color:#000000;stop-opacity:0.05"/>
    <stop offset="1" style="stop-color:#000000;stop-opacity:0.1"/>
  </radialGradient>
  <path fill="url(#SVGID_12_)" d="M77.505,130.668c0,5.94-1.023,6.253-1.993,6.253c-0.969,0-1.991-0.313-1.991-6.253&#xD;&#xA;&#x9;&#x9;c0-5.941,0.464-5.531,1.925-5.531S77.505,124.727,77.505,130.668z M75.512,14.112c-0.984,0-2.025,0.401-2.025,6.45&#xD;&#xA;&#x9;&#x9;s0.476,5.775,1.959,5.775c1.486,0,2.096,0.273,2.096-5.775S76.498,14.112,75.512,14.112z M84.063,124.395&#xD;&#xA;&#x9;&#x9;c-1.439,0.254-1.967-0.068-0.936,5.782c1.032,5.851,2.094,5.98,3.048,5.812c0.954-0.168,1.908-0.653,0.877-6.504&#xD;&#xA;&#x9;&#x9;C86.02,123.634,85.501,124.141,84.063,124.395z M64.849,15.047c-0.97,0.17-1.925,0.746-0.875,6.703&#xD;&#xA;&#x9;&#x9;c1.051,5.957,1.472,5.604,2.933,5.348c1.463-0.259,2.111-0.095,1.061-6.052C66.917,15.089,65.819,14.875,64.849,15.047z&#xD;&#xA;&#x9;&#x9; M92.42,122.168c-1.375,0.5-1.949,0.274,0.083,5.857c2.032,5.582,3.101,5.525,4.011,5.193c0.91-0.331,1.766-0.975-0.267-6.557&#xD;&#xA;&#x9;&#x9;C94.215,121.079,93.791,121.668,92.42,122.168z M54.51,17.818c-0.925,0.335-1.767,1.068,0.302,6.753&#xD;&#xA;&#x9;&#x9;c2.07,5.685,2.423,5.265,3.815,4.758c1.397-0.509,2.064-0.46-0.005-6.145C56.554,17.5,55.436,17.48,54.51,17.818z M100.264,118.524&#xD;&#xA;&#x9;&#x9;c-1.267,0.731-1.872,0.608,1.098,5.753c2.972,5.146,4.014,4.904,4.853,4.419c0.839-0.483,1.569-1.267-1.401-6.411&#xD;&#xA;&#x9;&#x9;C101.843,117.141,101.527,117.793,100.264,118.524z M44.809,22.343c-0.852,0.491-1.554,1.358,1.471,6.599&#xD;&#xA;&#x9;&#x9;c3.025,5.238,3.299,4.764,4.584,4.022c1.287-0.743,1.952-0.812-1.072-6.051S45.662,21.85,44.809,22.343z M107.355,113.574&#xD;&#xA;&#x9;&#x9;c-1.121,0.939-1.737,0.924,2.08,5.475c3.819,4.552,4.805,4.133,5.546,3.51c0.742-0.622,1.326-1.521-2.493-6.07&#xD;&#xA;&#x9;&#x9;C108.67,111.938,108.473,112.635,107.355,113.574z M36.041,28.483c-0.754,0.632-1.295,1.606,2.594,6.243&#xD;&#xA;&#x9;&#x9;c3.89,4.633,4.076,4.118,5.213,3.164c1.139-0.955,1.782-1.137-2.105-5.772C37.854,27.484,36.795,27.85,36.041,28.483z&#xD;&#xA;&#x9;&#x9; M113.479,107.467c-0.94,1.121-1.55,1.212,3,5.031c4.551,3.818,5.448,3.235,6.071,2.493c0.622-0.741,1.041-1.728-3.511-5.546&#xD;&#xA;&#x9;&#x9;C114.49,105.627,114.417,106.348,113.479,107.467z M28.474,36.053c-0.634,0.753-0.997,1.807,3.638,5.698&#xD;&#xA;&#x9;&#x9;c4.636,3.887,4.73,3.348,5.684,2.211c0.955-1.138,1.557-1.43-3.076-5.319C30.084,34.755,29.106,35.298,28.474,36.053z&#xD;&#xA;&#x9;&#x9; M118.45,100.389c-0.73,1.268-1.315,1.463,3.827,4.435c5.146,2.971,5.929,2.24,6.413,1.401c0.483-0.838,0.726-1.883-4.421-4.852&#xD;&#xA;&#x9;&#x9;C119.126,98.402,119.179,99.125,118.45,100.389z M22.335,44.821c-0.493,0.853-0.668,1.952,4.572,4.98&#xD;&#xA;&#x9;&#x9;c5.24,3.022,5.239,2.476,5.98,1.189c0.743-1.286,1.285-1.679-3.953-4.704C23.695,43.264,22.826,43.968,22.335,44.821z&#xD;&#xA;&#x9;&#x9; M122.117,92.555c-0.5,1.377-1.042,1.67,4.539,3.703c5.582,2.032,6.227,1.178,6.558,0.268s0.388-1.98-5.195-4.011&#xD;&#xA;&#x9;&#x9;C122.437,90.482,122.614,91.185,122.117,92.555z M17.813,54.522c-0.338,0.926-0.319,2.039,5.367,4.11&#xD;&#xA;&#x9;&#x9;c5.686,2.066,5.59,1.529,6.097,0.134c0.508-1.396,0.974-1.876-4.71-3.946C18.882,52.752,18.147,53.597,17.813,54.522z&#xD;&#xA;&#x9;&#x9; M124.368,84.203c-0.255,1.443-0.737,1.826,5.112,2.859c5.85,1.032,6.336,0.078,6.505-0.875c0.168-0.953,0.038-2.018-5.813-3.048&#xD;&#xA;&#x9;&#x9;C124.322,82.107,124.619,82.769,124.368,84.203z M15.043,64.861c-0.172,0.971,0.039,2.063,6,3.116&#xD;&#xA;&#x9;&#x9;c5.957,1.048,5.771,0.535,6.027-0.927s0.633-2.017-5.324-3.068C15.789,62.932,15.211,63.892,15.043,64.861z M125.135,75.588&#xD;&#xA;&#x9;&#x9;c-0.002,1.467-0.41,1.927,5.53,1.929c5.94,0.001,6.253-1.022,6.254-1.991c0-0.969-0.313-1.993-6.255-1.992&#xD;&#xA;&#x9;&#x9;C124.725,73.533,125.133,74.133,125.135,75.588z M14.109,75.524c0,0.985,0.398,2.025,6.451,2.027&#xD;&#xA;&#x9;&#x9;c6.049-0.003,5.776-0.476,5.775-1.96s0.272-2.096-5.776-2.097S14.109,74.54,14.109,75.524z M124.393,66.971&#xD;&#xA;&#x9;&#x9;c0.254,1.444-0.069,1.969,5.782,0.939c5.85-1.031,5.979-2.094,5.812-3.047c-0.168-0.955-0.653-1.909-6.505-0.876&#xD;&#xA;&#x9;&#x9;C123.632,65.019,124.139,65.538,124.393,66.971z M15.043,86.188c0.173,0.971,0.744,1.926,6.705,0.877&#xD;&#xA;&#x9;&#x9;c5.956-1.054,5.606-1.472,5.348-2.934S27,82.02,21.043,83.069S14.872,85.219,15.043,86.188z M122.166,58.613&#xD;&#xA;&#x9;&#x9;c0.5,1.379,0.273,1.951,5.856-0.078c5.582-2.031,5.525-3.102,5.195-4.011c-0.332-0.911-0.976-1.767-6.559,0.268&#xD;&#xA;&#x9;&#x9;C121.077,56.823,121.667,57.247,122.166,58.613z M17.814,96.526c0.339,0.926,1.067,1.767,6.755-0.3&#xD;&#xA;&#x9;&#x9;c5.683-2.072,5.267-2.423,4.758-3.818c-0.509-1.395-0.462-2.063-6.146,0.006S17.477,95.602,17.814,96.526z M118.521,50.77&#xD;&#xA;&#x9;&#x9;c0.732,1.271,0.608,1.874,5.754-1.094c5.145-2.97,4.903-4.014,4.42-4.852c-0.485-0.84-1.268-1.571-6.412,1.402&#xD;&#xA;&#x9;&#x9;C117.139,49.195,117.793,49.512,118.521,50.77z M22.339,106.228c0.495,0.853,1.358,1.554,6.601-1.469&#xD;&#xA;&#x9;&#x9;c5.236-3.028,4.766-3.3,4.022-4.586s-0.813-1.951-6.051,1.072C21.672,104.27,21.846,105.375,22.339,106.228z M113.57,43.678&#xD;&#xA;&#x9;&#x9;c0.941,1.125,0.925,1.74,5.477-2.076c4.551-3.817,4.132-4.804,3.51-5.545c-0.623-0.743-1.521-1.328-6.07,2.494&#xD;&#xA;&#x9;&#x9;C111.936,42.368,112.635,42.566,113.57,43.678z M28.479,114.996c0.636,0.752,1.607,1.293,6.245-2.594&#xD;&#xA;&#x9;&#x9;c4.631-3.891,4.119-4.076,3.164-5.215c-0.955-1.137-1.14-1.779-5.771,2.107C27.482,113.183,27.844,114.241,28.479,114.996z&#xD;&#xA;&#x9;&#x9; M107.463,37.554c1.124,0.944,1.213,1.554,5.032-2.995c3.819-4.551,3.235-5.448,2.494-6.07c-0.743-0.624-1.729-1.045-5.545,3.51&#xD;&#xA;&#x9;&#x9;C105.626,36.548,106.349,36.621,107.463,37.554z M36.049,122.564c0.757,0.629,1.808,0.994,5.7-3.639&#xD;&#xA;&#x9;&#x9;c3.885-4.636,3.35-4.73,2.21-5.686c-1.138-0.953-1.431-1.555-5.318,3.078S35.293,121.932,36.049,122.564z M100.385,32.583&#xD;&#xA;&#x9;&#x9;c1.271,0.735,1.465,1.319,4.436-3.823c2.971-5.146,2.24-5.928,1.402-6.411c-0.84-0.485-1.884-0.729-4.851,4.419&#xD;&#xA;&#x9;&#x9;C98.401,31.912,99.126,31.857,100.385,32.583z M44.817,128.703c0.855,0.488,1.953,0.666,4.982-4.573&#xD;&#xA;&#x9;&#x9;c3.021-5.239,2.478-5.239,1.188-5.983c-1.286-0.74-1.68-1.281-4.702,3.956C43.262,127.34,43.963,128.211,44.817,128.703z&#xD;&#xA;&#x9;&#x9; M92.552,28.917c1.38,0.504,1.671,1.046,3.704-4.535c2.032-5.583,1.177-6.227,0.268-6.558c-0.912-0.332-1.982-0.391-4.01,5.194&#xD;&#xA;&#x9;&#x9;C90.48,28.602,91.186,28.422,92.552,28.917z M54.519,133.227c0.928,0.332,2.04,0.316,4.113-5.369c2.065-5.684,1.53-5.59,0.13-6.1&#xD;&#xA;&#x9;&#x9;c-1.394-0.505-1.875-0.97-3.942,4.713C52.75,132.153,53.592,132.891,54.519,133.227z M84.2,26.666&#xD;&#xA;&#x9;&#x9;c1.446,0.257,1.827,0.74,2.86-5.108c1.031-5.851,0.078-6.336-0.875-6.505c-0.955-0.168-2.02-0.04-3.047,5.813&#xD;&#xA;&#x9;&#x9;C82.106,26.716,82.77,26.416,84.2,26.666z M64.857,135.996c0.973,0.166,2.064-0.042,3.119-6.002&#xD;&#xA;&#x9;&#x9;c1.047-5.955,0.535-5.771-0.932-6.029c-1.459-0.255-2.015-0.629-3.064,5.326S63.888,135.826,64.857,135.996z"/>
  <radialGradient id="SVGID_13_" cx="75.5254" cy="75.5156" r="44.4414" gradientUnits="userSpaceOnUse">
    <stop offset="0" style="stop-color:#000000;stop-opacity:0.02"/>
    <stop offset="1" style="stop-color:#000000;stop-opacity:0.05"/>
  </radialGradient>
  <path fill="url(#SVGID_13_)" d="M77.871,107.255c0,7.017-1.054,12.703-2.354,12.703s-2.352-5.687-2.352-12.703&#xD;&#xA;&#x9;&#x9;c0-7.015,1.903-23.163,2.484-23.163S77.871,100.24,77.871,107.255z M75.517,31.073c-1.32,0-2.393,5.792-2.393,12.935&#xD;&#xA;&#x9;&#x9;c0,7.145,1.937,23.297,2.525,23.297c0.591,0,2.265-16.152,2.265-23.297C77.914,36.865,76.84,31.073,75.517,31.073z M77.125,83.964&#xD;&#xA;&#x9;&#x9;c-0.571,0.1,0.369,16.31,1.586,23.218c1.221,6.91,3.243,12.328,4.522,12.103c1.281-0.226,1.333-6.009,0.114-12.92&#xD;&#xA;&#x9;&#x9;C82.13,99.457,77.696,83.862,77.125,83.964z M67.8,31.75c-1.301,0.229-1.352,6.118-0.11,13.153&#xD;&#xA;&#x9;&#x9;c1.24,7.036,5.939,22.63,6.521,22.526c0.581-0.102-0.563-16.322-1.804-23.358C71.167,37.037,69.103,31.521,67.8,31.75z&#xD;&#xA;&#x9;&#x9; M78.557,83.581c-0.546,0.198,3.207,15.975,5.606,22.565c2.399,6.594,5.333,11.578,6.554,11.134&#xD;&#xA;&#x9;&#x9;c1.223-0.445,0.271-6.148-2.131-12.743C86.188,97.946,79.102,83.382,78.557,83.581z M60.317,33.757&#xD;&#xA;&#x9;&#x9;c-1.241,0.45-0.269,6.26,2.175,12.973c2.444,6.713,9.768,21.276,10.322,21.075c0.555-0.202-3.377-16.001-5.82-22.716&#xD;&#xA;&#x9;&#x9;C64.552,38.377,61.561,33.305,60.317,33.757z M79.898,82.955c-0.502,0.29,5.945,15.151,9.452,21.226&#xD;&#xA;&#x9;&#x9;c3.507,6.076,7.261,10.477,8.388,9.826c1.126-0.65-0.802-6.103-4.311-12.18C89.921,95.754,80.401,82.664,79.898,82.955z&#xD;&#xA;&#x9;&#x9; M53.298,37.032c-1.146,0.658,0.821,6.212,4.393,12.397c3.574,6.187,13.304,19.281,13.814,18.986s-6.093-15.195-9.664-21.383&#xD;&#xA;&#x9;&#x9;C58.271,40.846,54.444,36.37,53.298,37.032z M81.111,82.106c-0.443,0.372,8.498,13.863,13.007,19.237&#xD;&#xA;&#x9;&#x9;c4.509,5.376,8.971,9.057,9.968,8.221c0.995-0.837-1.85-5.87-6.361-11.246C93.216,92.946,81.557,81.732,81.111,82.106z&#xD;&#xA;&#x9;&#x9; M46.953,41.477c-1.014,0.847,1.888,5.974,6.479,11.445c4.594,5.472,16.438,16.702,16.889,16.323&#xD;&#xA;&#x9;&#x9;c0.453-0.38-8.627-13.93-13.217-19.403C52.512,44.368,47.967,40.625,46.953,41.477z M82.16,81.059&#xD;&#xA;&#x9;&#x9;c-0.373,0.445,10.788,12.154,16.16,16.664c5.373,4.512,10.407,7.361,11.244,6.363c0.835-0.995-2.841-5.457-8.216-9.97&#xD;&#xA;&#x9;&#x9;C95.975,89.608,82.533,80.613,82.16,81.059z M41.477,46.954c-0.852,1.011,2.896,5.556,8.367,10.147&#xD;&#xA;&#x9;&#x9;c5.476,4.591,19.076,13.617,19.455,13.166c0.38-0.452-10.901-12.244-16.373-16.837C47.453,48.837,42.327,45.939,41.477,46.954z&#xD;&#xA;&#x9;&#x9; M83.01,79.846c-0.29,0.503,12.747,10.072,18.82,13.581c6.076,3.51,11.527,5.442,12.178,4.314c0.65-1.125-3.744-4.883-9.822-8.392&#xD;&#xA;&#x9;&#x9;C98.109,85.844,83.301,79.342,83.01,79.846z M37.034,53.3c-0.664,1.144,3.817,4.97,10.002,8.54&#xD;&#xA;&#x9;&#x9;c6.188,3.57,21.14,10.122,21.435,9.611S55.619,61.263,49.434,57.689C43.246,54.117,37.695,52.153,37.034,53.3z M83.637,78.503&#xD;&#xA;&#x9;&#x9;c-0.198,0.546,14.314,7.683,20.905,10.083c6.592,2.402,12.297,3.358,12.741,2.135c0.445-1.222-4.535-4.159-11.131-6.559&#xD;&#xA;&#x9;&#x9;C99.56,81.765,83.836,77.957,83.637,78.503z M33.762,60.32c-0.457,1.241,4.622,4.231,11.332,6.673&#xD;&#xA;&#x9;&#x9;c6.717,2.442,22.564,6.321,22.767,5.769c0.202-0.555-14.413-7.827-21.126-10.271C40.021,60.047,34.214,59.077,33.762,60.32z&#xD;&#xA;&#x9;&#x9; M84.021,77.073c-0.101,0.571,15.443,5.056,22.351,6.275c6.909,1.22,12.693,1.172,12.918-0.11c0.227-1.28-5.188-3.308-12.101-4.526&#xD;&#xA;&#x9;&#x9;C100.279,77.497,84.122,76.5,84.021,77.073z M31.758,67.803c-0.235,1.303,5.285,3.365,12.318,4.604&#xD;&#xA;&#x9;&#x9;c7.039,1.239,23.309,2.331,23.41,1.751c0.104-0.581-15.542-5.229-22.576-6.469C37.875,66.446,31.987,66.5,31.758,67.803z&#xD;&#xA;&#x9;&#x9; M84.15,75.598c0,0.579,16.099,2.272,23.111,2.276c7.018,0.001,12.704-1.051,12.704-2.353c0-1.3-5.685-2.357-12.704-2.356&#xD;&#xA;&#x9;&#x9;C100.246,73.168,84.15,75.016,84.15,75.598z M31.084,75.521c-0.006,1.322,5.79,2.396,12.93,2.395&#xD;&#xA;&#x9;&#x9;c7.148-0.003,23.348-1.729,23.348-2.318c0-0.59-16.202-2.474-23.346-2.474C36.873,73.122,31.083,74.197,31.084,75.521z&#xD;&#xA;&#x9;&#x9; M84.022,74.121c0.1,0.571,16.26-0.58,23.167-1.794c6.91-1.217,12.328-3.241,12.104-4.524c-0.227-1.279-6.009-1.333-12.92-0.113&#xD;&#xA;&#x9;&#x9;C99.464,68.91,83.922,73.549,84.022,74.121z M31.76,83.236c0.225,1.304,6.117,1.355,13.149,0.113&#xD;&#xA;&#x9;&#x9;c7.039-1.244,22.681-5.733,22.579-6.313c-0.103-0.581-16.374,0.354-23.41,1.594C37.043,79.87,31.529,81.936,31.76,83.236z&#xD;&#xA;&#x9;&#x9; M83.64,72.69c0.198,0.545,15.924-3.418,22.515-5.813c6.594-2.398,11.578-5.332,11.135-6.557&#xD;&#xA;&#x9;&#x9;c-0.446-1.223-6.148-0.271-12.744,2.132C97.954,64.854,83.44,72.144,83.64,72.69z M33.767,90.718&#xD;&#xA;&#x9;&#x9;c0.446,1.245,6.259,0.272,12.968-2.171c6.716-2.447,21.329-9.561,21.129-10.115c-0.202-0.554-16.053,3.168-22.766,5.611&#xD;&#xA;&#x9;&#x9;C38.384,86.486,33.313,89.477,33.767,90.718z M83.014,71.348c0.29,0.502,15.1-6.155,21.176-9.659&#xD;&#xA;&#x9;&#x9;c6.077-3.507,10.477-7.261,9.826-8.389c-0.651-1.126-6.103,0.799-12.179,4.312C95.762,61.12,82.723,70.844,83.014,71.348z&#xD;&#xA;&#x9;&#x9; M37.041,97.737c0.654,1.149,6.212-0.818,12.394-4.389c6.188-3.577,19.333-13.097,19.04-13.607&#xD;&#xA;&#x9;&#x9;c-0.295-0.511-15.247,5.884-21.434,9.455C40.853,92.769,36.379,96.593,37.041,97.737z M82.164,70.134&#xD;&#xA;&#x9;&#x9;c0.373,0.444,13.813-8.707,19.188-13.213c5.377-4.509,9.057-8.971,8.22-9.969c-0.836-0.995-5.87,1.848-11.244,6.361&#xD;&#xA;&#x9;&#x9;C92.955,57.824,81.791,69.688,82.164,70.134z M41.483,104.083c0.845,1.018,5.976-1.886,11.444-6.476&#xD;&#xA;&#x9;&#x9;c5.474-4.598,16.754-16.23,16.375-16.683s-13.981,8.418-19.454,13.01C44.375,98.528,40.633,103.069,41.483,104.083z M81.117,69.086&#xD;&#xA;&#x9;&#x9;c0.443,0.373,12.104-10.998,16.614-16.367c4.513-5.375,7.36-10.408,6.364-11.246c-0.996-0.834-5.461,2.841-9.969,8.218&#xD;&#xA;&#x9;&#x9;C89.618,55.066,80.672,68.711,81.117,69.086z M46.961,109.559c1.01,0.856,5.558-2.894,10.146-8.363&#xD;&#xA;&#x9;&#x9;c4.592-5.479,13.668-18.87,13.217-19.249c-0.451-0.38-12.295,10.693-16.887,16.166C48.844,103.588,45.947,108.708,46.961,109.559z&#xD;&#xA;&#x9;&#x9; M79.904,68.235c0.502,0.291,10.02-12.955,13.531-19.026c3.511-6.077,5.441-11.528,4.314-12.181&#xD;&#xA;&#x9;&#x9;c-1.125-0.648-4.885,3.745-8.39,9.823C85.854,52.93,79.4,67.944,79.904,68.235z M53.306,114.001&#xD;&#xA;&#x9;&#x9;c1.144,0.667,4.972-3.814,8.54-9.998c3.571-6.192,10.174-20.934,9.662-21.228c-0.51-0.297-10.239,12.642-13.812,18.829&#xD;&#xA;&#x9;&#x9;C54.125,107.793,52.16,113.339,53.306,114.001z M78.563,67.608c0.545,0.199,7.63-14.521,10.032-21.111&#xD;&#xA;&#x9;&#x9;c2.403-6.594,3.357-12.297,2.134-12.744c-1.221-0.443-4.16,4.536-6.556,11.132C81.774,51.479,78.016,67.41,78.563,67.608z&#xD;&#xA;&#x9;&#x9; M60.326,117.274c1.242,0.458,4.234-4.62,6.675-11.33c2.44-6.717,6.372-22.357,5.817-22.56c-0.553-0.202-7.877,14.205-10.32,20.919&#xD;&#xA;&#x9;&#x9;C60.056,111.02,59.084,116.822,60.326,117.274z M77.131,67.225c0.572,0.102,5.004-15.649,6.227-22.557&#xD;&#xA;&#x9;&#x9;c1.221-6.912,1.171-12.693-0.111-12.922c-1.279-0.224-3.31,5.191-4.524,12.102C77.507,50.759,76.559,67.124,77.131,67.225z&#xD;&#xA;&#x9;&#x9; M67.809,119.279c1.303,0.235,3.367-5.285,4.605-12.316c1.237-7.04,2.381-23.102,1.801-23.204&#xD;&#xA;&#x9;&#x9;c-0.58-0.104-5.28,15.333-6.521,22.369C66.455,113.166,66.507,119.049,67.809,119.279z"/>
  <linearGradient id="SVGID_14_" gradientUnits="userSpaceOnUse" x1="29.9971" y1="75.5244" x2="121.0449" y2="75.5244">
    <stop offset="0" style="stop-color:#FFFFFF;stop-opacity:0.1"/>
    <stop offset="0.2567" style="stop-color:#C1C1C1;stop-opacity:0.0872"/>
    <stop offset="0.847" style="stop-color:#292929;stop-opacity:0.0576"/>
    <stop offset="1" style="stop-color:#000000;stop-opacity:0.05"/>
  </linearGradient>
  <path fill="url(#SVGID_14_)" d="M75.521,121.041c-25.104,0-45.524-20.418-45.524-45.521c0-25.093,20.42-45.512,45.524-45.512&#xD;&#xA;&#x9;&#x9;s45.523,20.419,45.523,45.512C121.045,100.623,100.626,121.041,75.521,121.041z"/>
  <g>
    <linearGradient id="SVGID_15_" gradientUnits="userSpaceOnUse" x1="75.5215" y1="123.1211" x2="75.5215" y2="27.9258">
      <stop offset="0" style="stop-color:#FFFFFF;stop-opacity:0.1"/>
      <stop offset="0.2567" style="stop-color:#C1C1C1;stop-opacity:0.0872"/>
      <stop offset="0.847" style="stop-color:#292929;stop-opacity:0.0576"/>
      <stop offset="1" style="stop-color:#000000;stop-opacity:0.05"/>
    </linearGradient>
    <path fill="url(#SVGID_15_)" d="M75.521,27.926c-26.291,0-47.605,21.314-47.605,47.594c0,26.299,21.314,47.602,47.605,47.602&#xD;&#xA;&#x9;&#x9;&#x9;c26.301,0,47.604-21.303,47.604-47.602C123.126,49.24,101.822,27.926,75.521,27.926z M75.521,121.041&#xD;&#xA;&#x9;&#x9;&#x9;c-25.104,0-45.524-20.418-45.524-45.521c0-25.093,20.42-45.512,45.524-45.512s45.523,20.419,45.523,45.512&#xD;&#xA;&#x9;&#x9;&#x9;C121.045,100.623,100.626,121.041,75.521,121.041z"/>
    <linearGradient id="SVGID_16_" gradientUnits="userSpaceOnUse" x1="75.5215" y1="112.3828" x2="75.5215" y2="38.666">
      <stop offset="0" style="stop-color:#FFFFFF;stop-opacity:0.1"/>
      <stop offset="0.2567" style="stop-color:#C1C1C1;stop-opacity:0.0872"/>
      <stop offset="0.847" style="stop-color:#292929;stop-opacity:0.0576"/>
      <stop offset="1" style="stop-color:#000000;stop-opacity:0.05"/>
    </linearGradient>
    <path fill="url(#SVGID_16_)" d="M75.521,38.666c-20.359,0-36.864,16.497-36.864,36.854c0,20.367,16.505,36.863,36.864,36.863&#xD;&#xA;&#x9;&#x9;&#x9;c20.357,0,36.864-16.496,36.864-36.863C112.386,55.163,95.879,38.666,75.521,38.666z M75.521,110.301&#xD;&#xA;&#x9;&#x9;&#x9;c-19.182,0-34.781-15.602-34.781-34.781c0-19.172,15.6-34.771,34.781-34.771s34.782,15.6,34.782,34.771&#xD;&#xA;&#x9;&#x9;&#x9;C110.304,94.699,94.703,110.301,75.521,110.301z"/>
    <linearGradient id="SVGID_17_" gradientUnits="userSpaceOnUse" x1="75.5273" y1="101.6836" x2="75.5273" y2="49.3652">
      <stop offset="0" style="stop-color:#FFFFFF;stop-opacity:0.1"/>
      <stop offset="0.2567" style="stop-color:#C1C1C1;stop-opacity:0.0872"/>
      <stop offset="0.847" style="stop-color:#292929;stop-opacity:0.0576"/>
      <stop offset="1" style="stop-color:#000000;stop-opacity:0.05"/>
    </linearGradient>
    <path fill="url(#SVGID_17_)" d="M75.521,49.365c-14.445,0-26.154,11.719-26.154,26.154c0,14.455,11.709,26.164,26.154,26.164&#xD;&#xA;&#x9;&#x9;&#x9;s26.165-11.709,26.165-26.164C101.687,61.084,89.967,49.365,75.521,49.365z M75.521,99.602c-13.281,0-24.072-10.803-24.072-24.082&#xD;&#xA;&#x9;&#x9;&#x9;c0-13.27,10.791-24.072,24.072-24.072c13.279,0,24.083,10.803,24.083,24.072C99.604,88.799,88.801,99.602,75.521,99.602z"/>
    <linearGradient id="SVGID_18_" gradientUnits="userSpaceOnUse" x1="75.5215" y1="90.8086" x2="75.5215" y2="60.2412">
      <stop offset="0" style="stop-color:#FFFFFF;stop-opacity:0.1"/>
      <stop offset="0.2567" style="stop-color:#C1C1C1;stop-opacity:0.0872"/>
      <stop offset="0.847" style="stop-color:#292929;stop-opacity:0.0576"/>
      <stop offset="1" style="stop-color:#000000;stop-opacity:0.05"/>
    </linearGradient>
    <path fill="url(#SVGID_18_)" d="M75.521,60.241c-8.441,0-15.289,6.838-15.289,15.278c0,8.451,6.848,15.289,15.289,15.289&#xD;&#xA;&#x9;&#x9;&#x9;c8.44,0,15.289-6.838,15.289-15.289C90.811,67.079,83.962,60.241,75.521,60.241z M75.521,88.725&#xD;&#xA;&#x9;&#x9;&#x9;c-7.286,0-13.208-5.92-13.208-13.205c0-7.274,5.922-13.197,13.208-13.197s13.207,5.923,13.207,13.197&#xD;&#xA;&#x9;&#x9;&#x9;C88.729,82.805,82.808,88.725,75.521,88.725z"/>
  </g>
  <g>
    <g>
      <linearGradient id="SVGID_19_" gradientUnits="userSpaceOnUse" x1="75.5215" y1="23.5605" x2="75.5215" y2="127.4893">
        <stop offset="0" style="stop-color:#FFFFFF;stop-opacity:0.1"/>
        <stop offset="0.2567" style="stop-color:#C1C1C1;stop-opacity:0.0872"/>
        <stop offset="0.847" style="stop-color:#292929;stop-opacity:0.0576"/>
        <stop offset="1" style="stop-color:#000000;stop-opacity:0.05"/>
      </linearGradient>
      <path fill="url(#SVGID_19_)" d="M75.522,23.561c-28.653,0-51.973,23.307-51.973,51.959c0,28.662,23.319,51.97,51.973,51.97&#xD;&#xA;&#x9;&#x9;&#x9;&#x9;c28.652,0,51.972-23.308,51.972-51.97C127.494,46.867,104.175,23.561,75.522,23.561z M75.522,125.311&#xD;&#xA;&#x9;&#x9;&#x9;&#x9;c-27.5,0-49.796-22.283-49.796-49.791c0-27.486,22.296-49.783,49.796-49.783c27.51,0,49.794,22.297,49.794,49.783&#xD;&#xA;&#x9;&#x9;&#x9;&#x9;C125.316,103.027,103.032,125.311,75.522,125.311z"/>
    </g>
    <linearGradient id="SVGID_20_" gradientUnits="userSpaceOnUse" x1="75.5215" y1="36.585" x2="75.5215" y2="114.4629">
      <stop offset="0" style="stop-color:#FFFFFF;stop-opacity:0.1"/>
      <stop offset="0.2567" style="stop-color:#C1C1C1;stop-opacity:0.0872"/>
      <stop offset="0.847" style="stop-color:#292929;stop-opacity:0.0576"/>
      <stop offset="1" style="stop-color:#000000;stop-opacity:0.05"/>
    </linearGradient>
    <path fill="url(#SVGID_20_)" d="M75.521,36.585c-21.471,0-38.945,17.465-38.945,38.935c0,21.48,17.475,38.943,38.945,38.943&#xD;&#xA;&#x9;&#x9;&#x9;c21.472,0,38.945-17.463,38.945-38.943C114.467,54.05,96.993,36.585,75.521,36.585z M75.521,112.383&#xD;&#xA;&#x9;&#x9;&#x9;c-20.359,0-36.864-16.496-36.864-36.863c0-20.356,16.505-36.854,36.864-36.854c20.357,0,36.864,16.497,36.864,36.854&#xD;&#xA;&#x9;&#x9;&#x9;C112.386,95.887,95.879,112.383,75.521,112.383z"/>
    <linearGradient id="SVGID_21_" gradientUnits="userSpaceOnUse" x1="75.5273" y1="47.2832" x2="75.5273" y2="103.7646">
      <stop offset="0" style="stop-color:#FFFFFF;stop-opacity:0.1"/>
      <stop offset="0.2567" style="stop-color:#C1C1C1;stop-opacity:0.0872"/>
      <stop offset="0.847" style="stop-color:#292929;stop-opacity:0.0576"/>
      <stop offset="1" style="stop-color:#000000;stop-opacity:0.05"/>
    </linearGradient>
    <path fill="url(#SVGID_21_)" d="M75.521,47.283c-15.571,0-28.236,12.666-28.236,28.236c0,15.579,12.665,28.245,28.236,28.245&#xD;&#xA;&#x9;&#x9;&#x9;c15.57,0,28.247-12.666,28.247-28.245C103.769,59.949,91.092,47.283,75.521,47.283z M75.521,101.684&#xD;&#xA;&#x9;&#x9;&#x9;c-14.445,0-26.154-11.709-26.154-26.164c0-14.436,11.709-26.154,26.154-26.154s26.165,11.719,26.165,26.154&#xD;&#xA;&#x9;&#x9;&#x9;C101.687,89.975,89.967,101.684,75.521,101.684z"/>
    <linearGradient id="SVGID_22_" gradientUnits="userSpaceOnUse" x1="75.5215" y1="58.1592" x2="75.5215" y2="92.8887">
      <stop offset="0" style="stop-color:#FFFFFF;stop-opacity:0.1"/>
      <stop offset="0.2567" style="stop-color:#C1C1C1;stop-opacity:0.0872"/>
      <stop offset="0.847" style="stop-color:#292929;stop-opacity:0.0576"/>
      <stop offset="1" style="stop-color:#000000;stop-opacity:0.05"/>
    </linearGradient>
    <path fill="url(#SVGID_22_)" d="M75.521,58.159c-9.576,0-17.371,7.784-17.371,17.36c0,9.586,7.795,17.369,17.371,17.369&#xD;&#xA;&#x9;&#x9;&#x9;c9.574,0,17.37-7.783,17.37-17.369C92.892,65.943,85.096,58.159,75.521,58.159z M75.521,90.809&#xD;&#xA;&#x9;&#x9;&#x9;c-8.441,0-15.289-6.838-15.289-15.289c0-8.44,6.848-15.278,15.289-15.278c8.44,0,15.289,6.838,15.289,15.278&#xD;&#xA;&#x9;&#x9;&#x9;C90.811,83.971,83.962,90.809,75.521,90.809z"/>
    <linearGradient id="SVGID_23_" gradientUnits="userSpaceOnUse" x1="75.5215" y1="69.0459" x2="75.5215" y2="82.002">
      <stop offset="0" style="stop-color:#FFFFFF;stop-opacity:0.1"/>
      <stop offset="0.2567" style="stop-color:#C1C1C1;stop-opacity:0.0872"/>
      <stop offset="0.847" style="stop-color:#292929;stop-opacity:0.0576"/>
      <stop offset="1" style="stop-color:#000000;stop-opacity:0.05"/>
    </linearGradient>
    <path fill="url(#SVGID_23_)" d="M75.521,69.046c-3.58,0-6.483,2.903-6.483,6.483c0,3.569,2.903,6.473,6.483,6.473&#xD;&#xA;&#x9;&#x9;&#x9;c3.579,0,6.483-2.903,6.483-6.473C82.005,71.949,79.101,69.046,75.521,69.046z"/>
  </g>
  <linearGradient id="SVGID_24_" gradientUnits="userSpaceOnUse" x1="75.5195" y1="12.2891" x2="75.5195" y2="138.7549">
    <stop offset="0" style="stop-color:#FFFFFF;stop-opacity:0.35"/>
    <stop offset="0.1953" style="stop-color:#C1C1C1;stop-opacity:0.2987"/>
    <stop offset="0.6443" style="stop-color:#292929;stop-opacity:0.1806"/>
    <stop offset="0.7607" style="stop-color:#000000;stop-opacity:0.15"/>
    <stop offset="1" style="stop-color:#000000;stop-opacity:0.05"/>
  </linearGradient>
  <path fill="url(#SVGID_24_)" d="M75.52,12.289c-34.925,0-63.235,28.309-63.235,63.232c0,34.925,28.311,63.233,63.235,63.233&#xD;&#xA;&#x9;&#x9;c34.926,0,63.236-28.309,63.236-63.233C138.756,40.598,110.445,12.289,75.52,12.289z M75.522,127.489&#xD;&#xA;&#x9;&#x9;c-28.653,0-51.973-23.308-51.973-51.97c0-28.652,23.319-51.959,51.973-51.959c28.652,0,51.972,23.307,51.972,51.959&#xD;&#xA;&#x9;&#x9;C127.494,104.182,104.175,127.489,75.522,127.489z"/>
  <g>
    <linearGradient id="SVGID_25_" gradientUnits="userSpaceOnUse" x1="42.4219" y1="21.9561" x2="70.2842" y2="21.9561">
      <stop offset="0" style="stop-color:#FFFFFF;stop-opacity:0.2"/>
      <stop offset="1" style="stop-color:#FFFFFF;stop-opacity:0.2"/>
    </linearGradient>
    <path fill="url(#SVGID_25_)" d="M70.284,23.545c-8.086,0.86-15.614,3.667-22.089,7.961l-5.773-9.423&#xD;&#xA;&#x9;&#x9;&#x9;c7.877-5.22,17.037-8.641,26.867-9.677L70.284,23.545z"/>
    <linearGradient id="SVGID_26_" gradientUnits="userSpaceOnUse" x1="80.4893" y1="21.8027" x2="108.6426" y2="21.8027">
      <stop offset="0" style="stop-color:#FFFFFF;stop-opacity:0.2"/>
      <stop offset="1" style="stop-color:#FFFFFF;stop-opacity:0.2"/>
    </linearGradient>
    <path fill="url(#SVGID_26_)" d="M102.647,31.264c-6.817-4.436-14.428-7.01-22.158-7.766l1.204-11.155&#xD;&#xA;&#x9;&#x9;&#x9;c9.405,0.924,18.667,4.049,26.949,9.447L102.647,31.264z"/>
  </g>
  <g>
    <linearGradient id="SVGID_27_" gradientUnits="userSpaceOnUse" x1="80.8682" y1="117.9316" x2="102.4316" y2="117.9316">
      <stop offset="0" style="stop-color:#FFFFFF;stop-opacity:0.2"/>
      <stop offset="1" style="stop-color:#FFFFFF;stop-opacity:0.2"/>
    </linearGradient>
    <path fill="url(#SVGID_27_)" d="M80.868,120.842c7.55-0.925,14.554-3.723,20.56-7.946l1.004,1.792&#xD;&#xA;&#x9;&#x9;&#x9;c-6.262,4.398-13.568,7.32-21.438,8.279L80.868,120.842z"/>
    <linearGradient id="SVGID_28_" gradientUnits="userSpaceOnUse" x1="49.9766" y1="118.4531" x2="71.9365" y2="118.4531">
      <stop offset="0" style="stop-color:#FFFFFF;stop-opacity:0.2"/>
      <stop offset="1" style="stop-color:#FFFFFF;stop-opacity:0.2"/>
    </linearGradient>
    <path fill="url(#SVGID_28_)" d="M51.132,113.765c6.425,4.203,13.567,6.602,20.805,7.242l-0.272,2.136&#xD;&#xA;&#x9;&#x9;&#x9;c-7.544-0.671-14.999-3.166-21.688-7.553L51.132,113.765z"/>
  </g>
  <g>
    <linearGradient id="SVGID_29_" gradientUnits="userSpaceOnUse" x1="27.915" y1="71.0801" x2="32.3877" y2="71.0801">
      <stop offset="0" style="stop-color:#FFFFFF;stop-opacity:0.1"/>
      <stop offset="1" style="stop-color:#FFFFFF;stop-opacity:0.1"/>
    </linearGradient>
    <path fill="url(#SVGID_29_)" d="M32.388,60.44c-2.451,7.2-2.979,14.724-1.788,21.97l-2.051,0.123&#xD;&#xA;&#x9;&#x9;&#x9;c-1.236-7.551-0.688-15.401,1.871-22.905L32.388,60.44z"/>
    <linearGradient id="SVGID_30_" gradientUnits="userSpaceOnUse" x1="34.3203" y1="43.6182" x2="51.6953" y2="43.6182">
      <stop offset="0" style="stop-color:#FFFFFF;stop-opacity:0.1"/>
      <stop offset="1" style="stop-color:#FFFFFF;stop-opacity:0.1"/>
    </linearGradient>
    <path fill="url(#SVGID_30_)" d="M51.695,36.743c-6.579,3.957-11.846,9.345-15.57,15.583l-1.805-1.175&#xD;&#xA;&#x9;&#x9;&#x9;c3.886-6.5,9.375-12.128,16.234-16.241L51.695,36.743z"/>
    <linearGradient id="SVGID_31_" gradientUnits="userSpaceOnUse" x1="100.3438" y1="44.5117" x2="117.2754" y2="44.5117">
      <stop offset="0" style="stop-color:#FFFFFF;stop-opacity:0.1"/>
      <stop offset="1" style="stop-color:#FFFFFF;stop-opacity:0.1"/>
    </linearGradient>
    <path fill="url(#SVGID_31_)" d="M115.347,53.384c-3.657-6.669-8.853-12.136-15.003-16.149l1.295-1.596&#xD;&#xA;&#x9;&#x9;&#x9;c6.406,4.185,11.828,9.889,15.637,16.842L115.347,53.384z"/>
    <linearGradient id="SVGID_32_" gradientUnits="userSpaceOnUse" x1="119.1533" y1="73.1758" x2="123.2168" y2="73.1758">
      <stop offset="0" style="stop-color:#FFFFFF;stop-opacity:0.1"/>
      <stop offset="1" style="stop-color:#FFFFFF;stop-opacity:0.1"/>
    </linearGradient>
    <path fill="url(#SVGID_32_)" d="M120.14,84.25c1.522-7.525,1.102-15.048-0.986-22.007l2.086-0.538&#xD;&#xA;&#x9;&#x9;&#x9;c2.172,7.255,2.618,15.104,1.022,22.941L120.14,84.25z"/>
  </g>
  <g>
    <linearGradient id="SVGID_33_" gradientUnits="userSpaceOnUse" x1="125.4707" y1="79.3477" x2="138.7705" y2="79.3477">
      <stop offset="0" style="stop-color:#FFFFFF;stop-opacity:0.1"/>
      <stop offset="1" style="stop-color:#FFFFFF;stop-opacity:0.1"/>
    </linearGradient>
    <path fill="url(#SVGID_33_)" d="M125.471,90.126c2.395-7.771,2.78-15.795,1.385-23.438l10.936-1.594&#xD;&#xA;&#x9;&#x9;&#x9;c1.693,9.297,1.229,19.063-1.691,28.507L125.471,90.126z"/>
    <linearGradient id="SVGID_34_" gradientUnits="userSpaceOnUse" x1="105.0273" y1="114.2148" x2="130.6738" y2="114.2148">
      <stop offset="0" style="stop-color:#FFFFFF;stop-opacity:0.1"/>
      <stop offset="1" style="stop-color:#FFFFFF;stop-opacity:0.1"/>
    </linearGradient>
    <path fill="url(#SVGID_34_)" d="M105.027,118.247c6.764-4.519,12.127-10.499,15.867-17.307l9.779,5.502&#xD;&#xA;&#x9;&#x9;&#x9;c-4.556,8.28-11.076,15.562-19.302,21.047L105.027,118.247z"/>
    <linearGradient id="SVGID_35_" gradientUnits="userSpaceOnUse" x1="21.1895" y1="115.3916" x2="47.2852" y2="115.3916">
      <stop offset="0" style="stop-color:#FFFFFF;stop-opacity:0.1"/>
      <stop offset="1" style="stop-color:#FFFFFF;stop-opacity:0.1"/>
    </linearGradient>
    <path fill="url(#SVGID_35_)" d="M30.928,102.268c4.115,7.014,9.776,12.715,16.357,16.845l-6.279,9.403&#xD;&#xA;&#x9;&#x9;&#x9;c-8.002-5.026-14.821-12.222-19.816-20.75L30.928,102.268z"/>
    <linearGradient id="SVGID_36_" gradientUnits="userSpaceOnUse" x1="12.2695" y1="80.8691" x2="26.127" y2="80.8691">
      <stop offset="0" style="stop-color:#FFFFFF;stop-opacity:0.1"/>
      <stop offset="1" style="stop-color:#FFFFFF;stop-opacity:0.1"/>
    </linearGradient>
    <path fill="url(#SVGID_36_)" d="M24.07,68.203c-1.232,8.041-0.44,16.033,2.057,23.389l-10.66,3.501&#xD;&#xA;&#x9;&#x9;&#x9;c-3.033-8.95-4.004-18.677-2.498-28.448L24.07,68.203z"/>
  </g>
</svg>