<svg version="1.2" baseProfile="tiny" viewBox="0 0 13.493 22.5" xmlns:xlink="http://www.w3.org/1999/xlink" xmlns="http://www.w3.org/2000/svg">
<path style="fill:#ffffff;" d="M6.747,21.5001C6.747,21.5001,10.939,21.5001,11.123,21.5001C11.3061,21.5001,11.2331,21.116,11.4149,20.934C11.597,20.752,12.493,20.6051,12.493,20.2221C12.493,19.8369,12.493,4.3621,12.493,3.7771C12.493,3.229,11.287,1.8139,11.287,1.4661L11.3961,1.4661C11.489,1.4661,11.4879,0.9999,11.3961,0.9999C11.305,0.9999,6.747,0.9999,6.747,0.9999C6.747,0.9999,2.1869,0.9999,2.096,0.9999C2.0051,0.9999,2.004,1.4661,2.096,1.4661L2.205,1.4661C2.206,1.8131,1.0,3.229,1.0,3.7771C1.0,4.3621,1.0,19.8369,1.0,20.2221C1.0,20.6051,1.896,20.752,2.0781,20.934C2.261,21.116,2.1869,21.5001,2.371,21.5001C2.553,21.5001,6.747,21.5001,6.747,21.5001Z"/>
</svg>