<svg version="1.2" baseProfile="tiny" viewBox="0 0 10.715 20.100" xmlns:xlink="http://www.w3.org/1999/xlink" xmlns="http://www.w3.org/2000/svg">
<path style="fill:#ffffff;" d="M1.214,20.1c-0.044-0.166-0.103-0.321-0.23-0.449c-0.123-0.122-0.298-0.19-0.519-0.278   C0.332,19.32,0.057,19.212,0,19.143L0.022,2.777c0.005-0.194,0.418-0.829,0.64-1.169c0.382-0.586,0.565-0.88,0.565-1.141V0h8.281   v0.466c0,0.261,0.184,0.555,0.566,1.141c0.222,0.341,0.635,0.976,0.64,1.17v16.444c-0.001,0-0.003-0.001-0.005-0.001   c-0.053,0-0.31,0.102-0.437,0.151c-0.222,0.088-0.396,0.156-0.52,0.278c-0.14,0.141-0.196,0.314-0.229,0.449H1.214z"/>
</svg>