<svg version="1.2" baseProfile="tiny" viewBox="0 0 151.039 151.035" xmlns:xlink="http://www.w3.org/1999/xlink" xmlns="http://www.w3.org/2000/svg">
<path style="fill:#ffffff;stroke:#231F20;stroke-width:4;" d="M47.5456,150.0246C45.8615,150.0246,43.7741,149.1607,42.5824,147.9675L3.0585,108.4265C1.8653,107.2318,0.9999,105.146,0.9999,103.462L1.0105,47.5564C1.0105,45.8693,1.8774,43.782,3.0706,42.5904L42.6111,3.06C43.8043,1.8653,45.8917,0.9999,47.5743,0.9999L103.4949,1.021C105.1851,1.021,107.2724,1.8834,108.4596,3.0705L147.9835,42.6206C149.154,43.7926,150.0391,45.9237,150.0391,47.576L150.0285,103.4922C150.0285,105.1778,149.1646,107.2635,147.9714,108.4567L108.4188,147.9886C107.2316,149.1743,105.1458,150.0367,103.4557,150.0367L47.5456,150.0246Z"/>
</svg>