<svg version="1.2" baseProfile="tiny" viewBox="0 0 151.039 151.035" xmlns:xlink="http://www.w3.org/1999/xlink" xmlns="http://www.w3.org/2000/svg">
<path style="fill:#ffffff;" d="M147.5515,43.5887L107.4914,3.4995C106.6683,2.6763,105.0401,2.0103,103.8741,2.0103L47.1952,1.9906C46.0291,1.9906,44.4024,2.6658,43.5778,3.4889L3.4996,43.5585C2.6749,44.3816,1.9982,46.0083,1.9982,47.1758L1.9892,103.8426C1.9892,105.0086,2.6643,106.6352,3.4875,107.4584L43.5491,147.537C44.3722,148.3602,46.0004,149.0368,47.1665,149.0368L103.8348,149.0474C105.0008,149.0474,106.629,148.3798,107.4522,147.5567L147.5424,107.4886C148.3656,106.6655,149.0408,105.0373,149.0408,103.8713L149.0513,47.1954C149.0513,46.0385,148.3747,44.4103,147.5515,43.5887Z"/>
</svg>