<svg version="1.2" baseProfile="tiny" viewBox="0 0 151.039 151.035" xmlns:xlink="http://www.w3.org/1999/xlink" xmlns="http://www.w3.org/2000/svg">
<path style="fill:#ffffff;" d="M107.4884,3.5025C106.6653,2.6794,105.0386,2.0057,103.8741,2.0057L47.1967,1.9922C46.0322,1.9922,44.404,2.6658,43.5808,3.4889L3.4996,43.5555C2.6749,44.3786,1.9998,46.0053,1.9998,47.1713L1.9907,103.8411C1.9907,105.0056,2.6643,106.6337,3.4875,107.4554L43.5491,147.5416C44.3722,148.3647,45.9974,149.0383,47.1634,149.0383L103.8393,149.0504C105.0023,149.0504,106.6305,148.3768,107.4537,147.5536L147.5394,107.4916C148.3626,106.6685,149.0377,105.0403,149.0377,103.8758L149.0483,47.2C149.0483,46.0355,148.3777,44.4088,147.5545,43.5857L107.4884,3.5025Z"/>
</svg>